<?xml version="1.0" encoding="UTF-8"?>
<!DOCTYPE svg PUBLIC "-//W3C//DTD SVG 1.1//EN" "http://www.w3.org/Graphics/SVG/1.1/DTD/svg11.dtd">
<svg version="1.1" xmlns="http://www.w3.org/2000/svg" xmlns:xlink="http://www.w3.org/1999/xlink" x="0" y="0" width="35" height="26" viewBox="0, 0, 35, 26">
  <g id="Background">
    <rect x="0" y="0" width="35" height="26" fill="#000000" fill-opacity="0"/>
  </g>
  <g id="Layer_1">
    <path d="M0.837,20.536 L4.756,18.165 C5.511,19.505 6.199,20.639 7.848,20.639 C9.429,20.639 10.426,20.021 10.426,17.615 L10.426,1.256 L15.238,1.256 L15.238,17.683 C15.238,22.667 12.317,24.935 8.055,24.935 C4.206,24.935 1.971,22.942 0.837,20.536" fill="#323330"/>
    <path d="M17.851,20.021 L21.769,17.753 C22.8,19.437 24.141,20.674 26.512,20.674 C28.506,20.674 29.777,19.677 29.777,18.302 C29.777,16.653 28.471,16.068 26.271,15.106 L25.069,14.591 C21.597,13.113 19.294,11.257 19.294,7.339 C19.294,3.73 22.044,0.981 26.34,0.981 C29.399,0.981 31.599,2.046 33.179,4.83 L29.433,7.236 C28.608,5.758 27.715,5.174 26.34,5.174 C24.931,5.174 24.037,6.067 24.037,7.236 C24.037,8.679 24.931,9.264 26.993,10.157 L28.196,10.673 C32.286,12.426 34.588,14.213 34.588,18.234 C34.588,22.564 31.186,24.936 26.615,24.936 C22.147,24.936 19.26,22.805 17.851,20.021" fill="#323330"/>
  </g>
</svg>
